<mxfile host="app.diagrams.net" agent="Mozilla/5.0 (Windows NT 10.0; Win64; x64) AppleWebKit/537.36 (KHTML, like Gecko) Chrome/137.0.0.0 Safari/537.36" version="27.2.0">
  <diagram name="페이지-1" id="k7BbHfFz_r1VpzKKjPot">
    <mxGraphModel dx="1188" dy="648" grid="1" gridSize="10" guides="1" tooltips="1" connect="1" arrows="1" fold="1" page="1" pageScale="1" pageWidth="827" pageHeight="1169" math="0" shadow="0">
      <root>
        <mxCell id="0" />
        <mxCell id="1" parent="0" />
        <mxCell id="hqxWnH7wlqVwTPEdWL9S-1" value="" style="shape=table;startSize=0;container=1;collapsible=0;childLayout=tableLayout;align=center;strokeColor=#FFFFFF;" vertex="1" parent="1">
          <mxGeometry x="20" y="60" width="651" height="222" as="geometry" />
        </mxCell>
        <mxCell id="hqxWnH7wlqVwTPEdWL9S-2" value="" style="shape=tableRow;horizontal=0;startSize=0;swimlaneHead=0;swimlaneBody=0;strokeColor=inherit;top=0;left=0;bottom=0;right=0;collapsible=0;dropTarget=0;fillColor=none;points=[[0,0.5],[1,0.5]];portConstraint=eastwest;align=left;" vertex="1" parent="hqxWnH7wlqVwTPEdWL9S-1">
          <mxGeometry width="651" height="30" as="geometry" />
        </mxCell>
        <mxCell id="hqxWnH7wlqVwTPEdWL9S-3" value="기능 범주" style="shape=partialRectangle;html=1;whiteSpace=wrap;connectable=0;strokeColor=#006EAF;overflow=hidden;fillColor=#1ba1e2;top=0;left=0;bottom=0;right=0;pointerEvents=1;align=left;labelBackgroundColor=none;fontColor=#ffffff;" vertex="1" parent="hqxWnH7wlqVwTPEdWL9S-2">
          <mxGeometry width="134" height="30" as="geometry">
            <mxRectangle width="134" height="30" as="alternateBounds" />
          </mxGeometry>
        </mxCell>
        <mxCell id="hqxWnH7wlqVwTPEdWL9S-4" value="사용자" style="shape=partialRectangle;html=1;whiteSpace=wrap;connectable=0;strokeColor=#006EAF;overflow=hidden;fillColor=#1ba1e2;top=0;left=0;bottom=0;right=0;pointerEvents=1;labelBackgroundColor=none;fontColor=#ffffff;align=left;" vertex="1" parent="hqxWnH7wlqVwTPEdWL9S-2">
          <mxGeometry x="134" width="267" height="30" as="geometry">
            <mxRectangle width="267" height="30" as="alternateBounds" />
          </mxGeometry>
        </mxCell>
        <mxCell id="hqxWnH7wlqVwTPEdWL9S-5" value="기능(유스케이스)" style="shape=partialRectangle;html=1;whiteSpace=wrap;connectable=0;strokeColor=#006EAF;overflow=hidden;fillColor=#1ba1e2;top=0;left=0;bottom=0;right=0;pointerEvents=1;labelBackgroundColor=none;fontColor=#ffffff;align=left;" vertex="1" parent="hqxWnH7wlqVwTPEdWL9S-2">
          <mxGeometry x="401" width="250" height="30" as="geometry">
            <mxRectangle width="250" height="30" as="alternateBounds" />
          </mxGeometry>
        </mxCell>
        <mxCell id="hqxWnH7wlqVwTPEdWL9S-6" value="" style="shape=tableRow;horizontal=0;startSize=0;swimlaneHead=0;swimlaneBody=0;strokeColor=inherit;top=0;left=0;bottom=0;right=0;collapsible=0;dropTarget=0;fillColor=none;points=[[0,0.5],[1,0.5]];portConstraint=eastwest;" vertex="1" parent="hqxWnH7wlqVwTPEdWL9S-1">
          <mxGeometry y="30" width="651" height="50" as="geometry" />
        </mxCell>
        <mxCell id="hqxWnH7wlqVwTPEdWL9S-7" value="입고 관리" style="shape=partialRectangle;html=1;whiteSpace=wrap;connectable=0;strokeColor=#6c8ebf;overflow=hidden;fillColor=#dae8fc;top=0;left=0;bottom=0;right=0;pointerEvents=1;align=left;" vertex="1" parent="hqxWnH7wlqVwTPEdWL9S-6">
          <mxGeometry width="134" height="50" as="geometry">
            <mxRectangle width="134" height="50" as="alternateBounds" />
          </mxGeometry>
        </mxCell>
        <mxCell id="hqxWnH7wlqVwTPEdWL9S-8" value="입출고 담당자" style="shape=partialRectangle;html=1;whiteSpace=wrap;connectable=0;strokeColor=#6c8ebf;overflow=hidden;fillColor=#dae8fc;top=0;left=0;bottom=0;right=0;pointerEvents=1;align=left;" vertex="1" parent="hqxWnH7wlqVwTPEdWL9S-6">
          <mxGeometry x="134" width="267" height="50" as="geometry">
            <mxRectangle width="267" height="50" as="alternateBounds" />
          </mxGeometry>
        </mxCell>
        <mxCell id="hqxWnH7wlqVwTPEdWL9S-9" value="납품 업체 제품 입고 기능&lt;div&gt;고객 반품 입고 기능&lt;/div&gt;" style="shape=partialRectangle;html=1;whiteSpace=wrap;connectable=0;strokeColor=#6c8ebf;overflow=hidden;fillColor=#dae8fc;top=0;left=0;bottom=0;right=0;pointerEvents=1;align=left;" vertex="1" parent="hqxWnH7wlqVwTPEdWL9S-6">
          <mxGeometry x="401" width="250" height="50" as="geometry">
            <mxRectangle width="250" height="50" as="alternateBounds" />
          </mxGeometry>
        </mxCell>
        <mxCell id="hqxWnH7wlqVwTPEdWL9S-10" value="" style="shape=tableRow;horizontal=0;startSize=0;swimlaneHead=0;swimlaneBody=0;strokeColor=inherit;top=0;left=0;bottom=0;right=0;collapsible=0;dropTarget=0;fillColor=none;points=[[0,0.5],[1,0.5]];portConstraint=eastwest;" vertex="1" parent="hqxWnH7wlqVwTPEdWL9S-1">
          <mxGeometry y="80" width="651" height="49" as="geometry" />
        </mxCell>
        <mxCell id="hqxWnH7wlqVwTPEdWL9S-11" value="출고 관리" style="shape=partialRectangle;html=1;whiteSpace=wrap;connectable=0;strokeColor=inherit;overflow=hidden;fillColor=none;top=0;left=0;bottom=0;right=0;pointerEvents=1;align=left;" vertex="1" parent="hqxWnH7wlqVwTPEdWL9S-10">
          <mxGeometry width="134" height="49" as="geometry">
            <mxRectangle width="134" height="49" as="alternateBounds" />
          </mxGeometry>
        </mxCell>
        <mxCell id="hqxWnH7wlqVwTPEdWL9S-12" value="입출고 담당자" style="shape=partialRectangle;html=1;whiteSpace=wrap;connectable=0;strokeColor=inherit;overflow=hidden;fillColor=none;top=0;left=0;bottom=0;right=0;pointerEvents=1;align=left;" vertex="1" parent="hqxWnH7wlqVwTPEdWL9S-10">
          <mxGeometry x="134" width="267" height="49" as="geometry">
            <mxRectangle width="267" height="49" as="alternateBounds" />
          </mxGeometry>
        </mxCell>
        <mxCell id="hqxWnH7wlqVwTPEdWL9S-13" value="납품 업체 반품 출고 기능&lt;div&gt;상품 출고 기능&lt;/div&gt;" style="shape=partialRectangle;html=1;whiteSpace=wrap;connectable=0;strokeColor=inherit;overflow=hidden;fillColor=none;top=0;left=0;bottom=0;right=0;pointerEvents=1;align=left;" vertex="1" parent="hqxWnH7wlqVwTPEdWL9S-10">
          <mxGeometry x="401" width="250" height="49" as="geometry">
            <mxRectangle width="250" height="49" as="alternateBounds" />
          </mxGeometry>
        </mxCell>
        <mxCell id="hqxWnH7wlqVwTPEdWL9S-14" value="" style="shape=tableRow;horizontal=0;startSize=0;swimlaneHead=0;swimlaneBody=0;strokeColor=inherit;top=0;left=0;bottom=0;right=0;collapsible=0;dropTarget=0;fillColor=none;points=[[0,0.5],[1,0.5]];portConstraint=eastwest;" vertex="1" parent="hqxWnH7wlqVwTPEdWL9S-1">
          <mxGeometry y="129" width="651" height="31" as="geometry" />
        </mxCell>
        <mxCell id="hqxWnH7wlqVwTPEdWL9S-15" value="현황 관리" style="shape=partialRectangle;html=1;whiteSpace=wrap;connectable=0;strokeColor=#6c8ebf;overflow=hidden;fillColor=#dae8fc;top=0;left=0;bottom=0;right=0;pointerEvents=1;align=left;" vertex="1" parent="hqxWnH7wlqVwTPEdWL9S-14">
          <mxGeometry width="134" height="31" as="geometry">
            <mxRectangle width="134" height="31" as="alternateBounds" />
          </mxGeometry>
        </mxCell>
        <mxCell id="hqxWnH7wlqVwTPEdWL9S-16" value="입출고 담당자" style="shape=partialRectangle;html=1;whiteSpace=wrap;connectable=0;strokeColor=#6c8ebf;overflow=hidden;fillColor=#dae8fc;top=0;left=0;bottom=0;right=0;pointerEvents=1;align=left;" vertex="1" parent="hqxWnH7wlqVwTPEdWL9S-14">
          <mxGeometry x="134" width="267" height="31" as="geometry">
            <mxRectangle width="267" height="31" as="alternateBounds" />
          </mxGeometry>
        </mxCell>
        <mxCell id="hqxWnH7wlqVwTPEdWL9S-17" value="현황 조회" style="shape=partialRectangle;html=1;whiteSpace=wrap;connectable=0;strokeColor=#6c8ebf;overflow=hidden;fillColor=#dae8fc;top=0;left=0;bottom=0;right=0;pointerEvents=1;align=left;" vertex="1" parent="hqxWnH7wlqVwTPEdWL9S-14">
          <mxGeometry x="401" width="250" height="31" as="geometry">
            <mxRectangle width="250" height="31" as="alternateBounds" />
          </mxGeometry>
        </mxCell>
        <mxCell id="hqxWnH7wlqVwTPEdWL9S-18" value="" style="shape=tableRow;horizontal=0;startSize=0;swimlaneHead=0;swimlaneBody=0;strokeColor=inherit;top=0;left=0;bottom=0;right=0;collapsible=0;dropTarget=0;fillColor=none;points=[[0,0.5],[1,0.5]];portConstraint=eastwest;" vertex="1" parent="hqxWnH7wlqVwTPEdWL9S-1">
          <mxGeometry y="160" width="651" height="32" as="geometry" />
        </mxCell>
        <mxCell id="hqxWnH7wlqVwTPEdWL9S-19" value="" style="shape=partialRectangle;html=1;whiteSpace=wrap;connectable=0;strokeColor=inherit;overflow=hidden;fillColor=none;top=0;left=0;bottom=0;right=0;pointerEvents=1;" vertex="1" parent="hqxWnH7wlqVwTPEdWL9S-18">
          <mxGeometry width="134" height="32" as="geometry">
            <mxRectangle width="134" height="32" as="alternateBounds" />
          </mxGeometry>
        </mxCell>
        <mxCell id="hqxWnH7wlqVwTPEdWL9S-20" value="현황 관리 담당자" style="shape=partialRectangle;html=1;whiteSpace=wrap;connectable=0;strokeColor=inherit;overflow=hidden;fillColor=none;top=0;left=0;bottom=0;right=0;pointerEvents=1;align=left;" vertex="1" parent="hqxWnH7wlqVwTPEdWL9S-18">
          <mxGeometry x="134" width="267" height="32" as="geometry">
            <mxRectangle width="267" height="32" as="alternateBounds" />
          </mxGeometry>
        </mxCell>
        <mxCell id="hqxWnH7wlqVwTPEdWL9S-21" value="현황 등록 기능(업데이트)" style="shape=partialRectangle;html=1;whiteSpace=wrap;connectable=0;strokeColor=inherit;overflow=hidden;fillColor=none;top=0;left=0;bottom=0;right=0;pointerEvents=1;align=left;" vertex="1" parent="hqxWnH7wlqVwTPEdWL9S-18">
          <mxGeometry x="401" width="250" height="32" as="geometry">
            <mxRectangle width="250" height="32" as="alternateBounds" />
          </mxGeometry>
        </mxCell>
        <mxCell id="hqxWnH7wlqVwTPEdWL9S-22" value="" style="shape=tableRow;horizontal=0;startSize=0;swimlaneHead=0;swimlaneBody=0;strokeColor=inherit;top=0;left=0;bottom=0;right=0;collapsible=0;dropTarget=0;fillColor=none;points=[[0,0.5],[1,0.5]];portConstraint=eastwest;" vertex="1" parent="hqxWnH7wlqVwTPEdWL9S-1">
          <mxGeometry y="192" width="651" height="30" as="geometry" />
        </mxCell>
        <mxCell id="hqxWnH7wlqVwTPEdWL9S-23" value="" style="shape=partialRectangle;html=1;whiteSpace=wrap;connectable=0;strokeColor=#6c8ebf;overflow=hidden;fillColor=#dae8fc;top=0;left=0;bottom=0;right=0;pointerEvents=1;" vertex="1" parent="hqxWnH7wlqVwTPEdWL9S-22">
          <mxGeometry width="134" height="30" as="geometry">
            <mxRectangle width="134" height="30" as="alternateBounds" />
          </mxGeometry>
        </mxCell>
        <mxCell id="hqxWnH7wlqVwTPEdWL9S-24" value="쇼핑몰 관리자" style="shape=partialRectangle;html=1;whiteSpace=wrap;connectable=0;strokeColor=#6c8ebf;overflow=hidden;fillColor=#dae8fc;top=0;left=0;bottom=0;right=0;pointerEvents=1;align=left;" vertex="1" parent="hqxWnH7wlqVwTPEdWL9S-22">
          <mxGeometry x="134" width="267" height="30" as="geometry">
            <mxRectangle width="267" height="30" as="alternateBounds" />
          </mxGeometry>
        </mxCell>
        <mxCell id="hqxWnH7wlqVwTPEdWL9S-25" value="실시간 현황 반영 기능" style="shape=partialRectangle;html=1;whiteSpace=wrap;connectable=0;strokeColor=#6c8ebf;overflow=hidden;fillColor=#dae8fc;top=0;left=0;bottom=0;right=0;pointerEvents=1;align=left;" vertex="1" parent="hqxWnH7wlqVwTPEdWL9S-22">
          <mxGeometry x="401" width="250" height="30" as="geometry">
            <mxRectangle width="250" height="30" as="alternateBounds" />
          </mxGeometry>
        </mxCell>
        <mxCell id="hqxWnH7wlqVwTPEdWL9S-50" value="재고 관리 시스템의 사용자별 기능" style="text;html=1;align=center;verticalAlign=middle;resizable=0;points=[];autosize=1;strokeColor=none;fillColor=none;fontSize=14;" vertex="1" parent="1">
          <mxGeometry x="10" y="30" width="220" height="30" as="geometry" />
        </mxCell>
        <mxCell id="hqxWnH7wlqVwTPEdWL9S-51" value="신제품 입고" style="ellipse;whiteSpace=wrap;html=1;" vertex="1" parent="1">
          <mxGeometry x="414" y="290" width="120" height="50" as="geometry" />
        </mxCell>
        <mxCell id="hqxWnH7wlqVwTPEdWL9S-52" value="업체 반품 출고" style="ellipse;whiteSpace=wrap;html=1;" vertex="1" parent="1">
          <mxGeometry x="414" y="400" width="120" height="50" as="geometry" />
        </mxCell>
        <mxCell id="hqxWnH7wlqVwTPEdWL9S-53" value="납품 업체 주문" style="ellipse;whiteSpace=wrap;html=1;" vertex="1" parent="1">
          <mxGeometry x="414" y="580" width="120" height="50" as="geometry" />
        </mxCell>
        <mxCell id="hqxWnH7wlqVwTPEdWL9S-54" value="고객 반품 입고" style="ellipse;whiteSpace=wrap;html=1;" vertex="1" parent="1">
          <mxGeometry x="414" y="345" width="120" height="50" as="geometry" />
        </mxCell>
        <mxCell id="hqxWnH7wlqVwTPEdWL9S-55" value="현황 조회" style="ellipse;whiteSpace=wrap;html=1;" vertex="1" parent="1">
          <mxGeometry x="414" y="520" width="120" height="50" as="geometry" />
        </mxCell>
        <mxCell id="hqxWnH7wlqVwTPEdWL9S-56" value="현황 반영" style="ellipse;whiteSpace=wrap;html=1;" vertex="1" parent="1">
          <mxGeometry x="414" y="640" width="120" height="50" as="geometry" />
        </mxCell>
        <mxCell id="hqxWnH7wlqVwTPEdWL9S-57" value="상품 출고" style="ellipse;whiteSpace=wrap;html=1;" vertex="1" parent="1">
          <mxGeometry x="414" y="460" width="120" height="50" as="geometry" />
        </mxCell>
        <mxCell id="hqxWnH7wlqVwTPEdWL9S-58" value="현황 등록" style="ellipse;whiteSpace=wrap;html=1;" vertex="1" parent="1">
          <mxGeometry x="580" y="400" width="120" height="50" as="geometry" />
        </mxCell>
        <mxCell id="hqxWnH7wlqVwTPEdWL9S-59" value="재고 관리 시스템의 유스케이스" style="text;html=1;align=center;verticalAlign=middle;resizable=0;points=[];autosize=1;strokeColor=none;fillColor=none;" vertex="1" parent="1">
          <mxGeometry x="414" y="30" width="180" height="30" as="geometry" />
        </mxCell>
        <mxCell id="hqxWnH7wlqVwTPEdWL9S-60" value="현황 관리 담당자" style="shape=umlActor;verticalLabelPosition=bottom;verticalAlign=top;html=1;outlineConnect=0;" vertex="1" parent="1">
          <mxGeometry x="330.5" y="575" width="30" height="60" as="geometry" />
        </mxCell>
        <mxCell id="hqxWnH7wlqVwTPEdWL9S-62" value="입출고 담당자" style="shape=umlActor;verticalLabelPosition=bottom;verticalAlign=top;html=1;outlineConnect=0;" vertex="1" parent="1">
          <mxGeometry x="330.5" y="370" width="30" height="60" as="geometry" />
        </mxCell>
        <mxCell id="hqxWnH7wlqVwTPEdWL9S-63" value="쇼핑몰 시스템" style="shape=umlActor;verticalLabelPosition=bottom;verticalAlign=top;html=1;outlineConnect=0;" vertex="1" parent="1">
          <mxGeometry x="625" y="635" width="30" height="60" as="geometry" />
        </mxCell>
        <mxCell id="hqxWnH7wlqVwTPEdWL9S-65" value="재고 관리 시스템" style="text;html=1;align=center;verticalAlign=middle;resizable=0;points=[];autosize=1;strokeColor=none;fillColor=none;" vertex="1" parent="1">
          <mxGeometry x="520" y="670" width="110" height="30" as="geometry" />
        </mxCell>
        <mxCell id="hqxWnH7wlqVwTPEdWL9S-67" value="" style="endArrow=none;html=1;rounded=0;exitX=0.5;exitY=0.5;exitDx=0;exitDy=0;exitPerimeter=0;entryX=0;entryY=0.5;entryDx=0;entryDy=0;" edge="1" parent="1" source="hqxWnH7wlqVwTPEdWL9S-62" target="hqxWnH7wlqVwTPEdWL9S-51">
          <mxGeometry width="50" height="50" relative="1" as="geometry">
            <mxPoint x="380" y="500" as="sourcePoint" />
            <mxPoint x="430" y="450" as="targetPoint" />
          </mxGeometry>
        </mxCell>
        <mxCell id="hqxWnH7wlqVwTPEdWL9S-69" value="" style="endArrow=none;html=1;rounded=0;exitX=0.5;exitY=0.5;exitDx=0;exitDy=0;exitPerimeter=0;entryX=0;entryY=0.5;entryDx=0;entryDy=0;" edge="1" parent="1" source="hqxWnH7wlqVwTPEdWL9S-62" target="hqxWnH7wlqVwTPEdWL9S-54">
          <mxGeometry width="50" height="50" relative="1" as="geometry">
            <mxPoint x="380" y="500" as="sourcePoint" />
            <mxPoint x="430" y="450" as="targetPoint" />
          </mxGeometry>
        </mxCell>
        <mxCell id="hqxWnH7wlqVwTPEdWL9S-70" value="" style="endArrow=none;html=1;rounded=0;exitX=0.5;exitY=0.5;exitDx=0;exitDy=0;exitPerimeter=0;entryX=0;entryY=0.5;entryDx=0;entryDy=0;" edge="1" parent="1" source="hqxWnH7wlqVwTPEdWL9S-62" target="hqxWnH7wlqVwTPEdWL9S-52">
          <mxGeometry width="50" height="50" relative="1" as="geometry">
            <mxPoint x="356" y="410" as="sourcePoint" />
            <mxPoint x="424" y="380" as="targetPoint" />
          </mxGeometry>
        </mxCell>
        <mxCell id="hqxWnH7wlqVwTPEdWL9S-71" value="" style="endArrow=none;html=1;rounded=0;exitX=0.5;exitY=0.5;exitDx=0;exitDy=0;exitPerimeter=0;entryX=0;entryY=0.5;entryDx=0;entryDy=0;" edge="1" parent="1" source="hqxWnH7wlqVwTPEdWL9S-62" target="hqxWnH7wlqVwTPEdWL9S-57">
          <mxGeometry width="50" height="50" relative="1" as="geometry">
            <mxPoint x="356" y="410" as="sourcePoint" />
            <mxPoint x="424" y="435" as="targetPoint" />
          </mxGeometry>
        </mxCell>
        <mxCell id="hqxWnH7wlqVwTPEdWL9S-72" value="" style="endArrow=none;html=1;rounded=0;entryX=0;entryY=0.5;entryDx=0;entryDy=0;exitX=0.5;exitY=0.5;exitDx=0;exitDy=0;exitPerimeter=0;" edge="1" parent="1" source="hqxWnH7wlqVwTPEdWL9S-60" target="hqxWnH7wlqVwTPEdWL9S-55">
          <mxGeometry width="50" height="50" relative="1" as="geometry">
            <mxPoint x="390" y="630" as="sourcePoint" />
            <mxPoint x="424" y="495" as="targetPoint" />
          </mxGeometry>
        </mxCell>
        <mxCell id="hqxWnH7wlqVwTPEdWL9S-73" value="" style="endArrow=none;html=1;rounded=0;entryX=0;entryY=0.5;entryDx=0;entryDy=0;exitX=0.5;exitY=0.5;exitDx=0;exitDy=0;exitPerimeter=0;" edge="1" parent="1" source="hqxWnH7wlqVwTPEdWL9S-60" target="hqxWnH7wlqVwTPEdWL9S-53">
          <mxGeometry width="50" height="50" relative="1" as="geometry">
            <mxPoint x="356" y="615" as="sourcePoint" />
            <mxPoint x="424" y="555" as="targetPoint" />
          </mxGeometry>
        </mxCell>
        <mxCell id="hqxWnH7wlqVwTPEdWL9S-74" value="" style="endArrow=none;html=1;rounded=0;entryX=0;entryY=0.5;entryDx=0;entryDy=0;exitX=0.5;exitY=0.5;exitDx=0;exitDy=0;exitPerimeter=0;" edge="1" parent="1" source="hqxWnH7wlqVwTPEdWL9S-60" target="hqxWnH7wlqVwTPEdWL9S-56">
          <mxGeometry width="50" height="50" relative="1" as="geometry">
            <mxPoint x="356" y="615" as="sourcePoint" />
            <mxPoint x="424" y="615" as="targetPoint" />
          </mxGeometry>
        </mxCell>
        <mxCell id="hqxWnH7wlqVwTPEdWL9S-75" value="" style="endArrow=none;html=1;rounded=0;entryX=0.5;entryY=0.5;entryDx=0;entryDy=0;exitX=1;exitY=0.5;exitDx=0;exitDy=0;entryPerimeter=0;" edge="1" parent="1" source="hqxWnH7wlqVwTPEdWL9S-56" target="hqxWnH7wlqVwTPEdWL9S-63">
          <mxGeometry width="50" height="50" relative="1" as="geometry">
            <mxPoint x="356" y="615" as="sourcePoint" />
            <mxPoint x="424" y="675" as="targetPoint" />
          </mxGeometry>
        </mxCell>
        <mxCell id="hqxWnH7wlqVwTPEdWL9S-76" value="" style="endArrow=classic;html=1;rounded=0;entryX=0;entryY=0.5;entryDx=0;entryDy=0;exitX=1;exitY=0.5;exitDx=0;exitDy=0;dashed=1;" edge="1" parent="1" source="hqxWnH7wlqVwTPEdWL9S-51" target="hqxWnH7wlqVwTPEdWL9S-58">
          <mxGeometry width="50" height="50" relative="1" as="geometry">
            <mxPoint x="380" y="500" as="sourcePoint" />
            <mxPoint x="430" y="450" as="targetPoint" />
          </mxGeometry>
        </mxCell>
        <mxCell id="hqxWnH7wlqVwTPEdWL9S-77" value="" style="endArrow=classic;html=1;rounded=0;entryX=0;entryY=0.5;entryDx=0;entryDy=0;exitX=1;exitY=0.5;exitDx=0;exitDy=0;dashed=1;" edge="1" parent="1" source="hqxWnH7wlqVwTPEdWL9S-54" target="hqxWnH7wlqVwTPEdWL9S-58">
          <mxGeometry width="50" height="50" relative="1" as="geometry">
            <mxPoint x="544" y="325" as="sourcePoint" />
            <mxPoint x="590" y="435" as="targetPoint" />
          </mxGeometry>
        </mxCell>
        <mxCell id="hqxWnH7wlqVwTPEdWL9S-78" value="" style="endArrow=classic;html=1;rounded=0;entryX=0;entryY=0.5;entryDx=0;entryDy=0;exitX=1;exitY=0.5;exitDx=0;exitDy=0;dashed=1;" edge="1" parent="1" source="hqxWnH7wlqVwTPEdWL9S-52" target="hqxWnH7wlqVwTPEdWL9S-58">
          <mxGeometry width="50" height="50" relative="1" as="geometry">
            <mxPoint x="544" y="380" as="sourcePoint" />
            <mxPoint x="590" y="435" as="targetPoint" />
          </mxGeometry>
        </mxCell>
        <mxCell id="hqxWnH7wlqVwTPEdWL9S-79" value="" style="endArrow=classic;html=1;rounded=0;entryX=0;entryY=0.5;entryDx=0;entryDy=0;exitX=1;exitY=0.5;exitDx=0;exitDy=0;dashed=1;" edge="1" parent="1" source="hqxWnH7wlqVwTPEdWL9S-57" target="hqxWnH7wlqVwTPEdWL9S-58">
          <mxGeometry width="50" height="50" relative="1" as="geometry">
            <mxPoint x="544" y="435" as="sourcePoint" />
            <mxPoint x="590" y="435" as="targetPoint" />
          </mxGeometry>
        </mxCell>
        <mxCell id="hqxWnH7wlqVwTPEdWL9S-80" value="&amp;lt;&amp;lt;include&amp;gt;&amp;gt;" style="text;html=1;align=center;verticalAlign=middle;resizable=0;points=[];autosize=1;strokeColor=none;fillColor=none;rotation=70;" vertex="1" parent="1">
          <mxGeometry x="520" y="340" width="90" height="30" as="geometry" />
        </mxCell>
        <mxCell id="hqxWnH7wlqVwTPEdWL9S-81" value="&amp;lt;&amp;lt;include&amp;gt;&amp;gt;" style="text;html=1;align=center;verticalAlign=middle;resizable=0;points=[];autosize=1;strokeColor=none;fillColor=none;rotation=0;" vertex="1" parent="1">
          <mxGeometry x="490" y="370" width="90" height="30" as="geometry" />
        </mxCell>
        <mxCell id="hqxWnH7wlqVwTPEdWL9S-82" value="&amp;lt;&amp;lt;include&amp;gt;&amp;gt;" style="text;html=1;align=center;verticalAlign=middle;resizable=0;points=[];autosize=1;strokeColor=none;fillColor=none;rotation=0;" vertex="1" parent="1">
          <mxGeometry x="500" y="400" width="90" height="30" as="geometry" />
        </mxCell>
        <mxCell id="hqxWnH7wlqVwTPEdWL9S-83" value="&amp;lt;&amp;lt;include&amp;gt;&amp;gt;" style="text;html=1;align=center;verticalAlign=middle;resizable=0;points=[];autosize=1;strokeColor=none;fillColor=none;rotation=0;" vertex="1" parent="1">
          <mxGeometry x="510" y="450" width="90" height="30" as="geometry" />
        </mxCell>
      </root>
    </mxGraphModel>
  </diagram>
</mxfile>
